# xmcd CD database file
#
# Track frame offsets:
#	150
#	53952
#	97900
#	138575
#	179487
#
# Disc length: 3497 seconds
#
# Revision: 1
# Processed by: cddbd v1.5.1PL0 Copyright (c) Steve Scherf et al.
# Submitted via: CDex 1.51
#
DISCID=410da705
DTITLE=Maria Schneider Orchestra - Concert in the Garden
DYEAR=2004
DGENRE=Jazz
TTITLE0=Concert in the Garden
TTITLE1=Three Romances: Part 1 Choro Dancado
TTITLE2=Three Romances: Part 2 Pas de Deux
TTITLE3=Three Romances: Part 3 Danca Ilusoria
TTITLE4=Buleria, Solea Y Rumba
EXTD=YEAR: 2004
EXTT0=
EXTT1=
EXTT2=
EXTT3=
EXTT4=
PLAYORDER=
